<svg width="36" height="26" viewBox="0 0 36 26" fill="none" xmlns="http://www.w3.org/2000/svg">
<path d="M12.75 10.5C12.75 10.1685 12.8817 9.85054 13.1161 9.61612C13.3505 9.3817 13.6685 9.25 14 9.25H26.5C26.8315 9.25 27.1495 9.3817 27.3839 9.61612C27.6183 9.85054 27.75 10.1685 27.75 10.5C27.75 10.8315 27.6183 11.1495 27.3839 11.3839C27.1495 11.6183 26.8315 11.75 26.5 11.75H14C13.6685 11.75 13.3505 11.6183 13.1161 11.3839C12.8817 11.1495 12.75 10.8315 12.75 10.5ZM14 16.75H26.5C26.8315 16.75 27.1495 16.6183 27.3839 16.3839C27.6183 16.1495 27.75 15.8315 27.75 15.5C27.75 15.1685 27.6183 14.8505 27.3839 14.6161C27.1495 14.3817 26.8315 14.25 26.5 14.25H14C13.6685 14.25 13.3505 14.3817 13.1161 14.6161C12.8817 14.8505 12.75 15.1685 12.75 15.5C12.75 15.8315 12.8817 16.1495 13.1161 16.3839C13.3505 16.6183 13.6685 16.75 14 16.75ZM35.25 3V21.75C35.25 22.7446 34.8549 23.6984 34.1517 24.4017C33.4484 25.1049 32.4946 25.5 31.5 25.5H4C3.00841 25.5 2.05718 25.1073 1.35441 24.4077C0.651638 23.7082 0.254545 22.7588 0.25 21.7672V6.75C0.25 6.41848 0.381696 6.10054 0.616116 5.86612C0.850537 5.6317 1.16848 5.5 1.5 5.5C1.83152 5.5 2.14946 5.6317 2.38388 5.86612C2.6183 6.10054 2.75 6.41848 2.75 6.75V21.75C2.75 22.0815 2.8817 22.3995 3.11612 22.6339C3.35054 22.8683 3.66848 23 4 23C4.33152 23 4.64946 22.8683 4.88388 22.6339C5.1183 22.3995 5.25 22.0815 5.25 21.75V3C5.25 2.33696 5.51339 1.70107 5.98223 1.23223C6.45107 0.763392 7.08696 0.5 7.75 0.5H32.75C33.413 0.5 34.0489 0.763392 34.5178 1.23223C34.9866 1.70107 35.25 2.33696 35.25 3ZM32.75 3H7.75V21.75C7.75062 22.1758 7.67822 22.5986 7.53594 23H31.5C31.8315 23 32.1495 22.8683 32.3839 22.6339C32.6183 22.3995 32.75 22.0815 32.75 21.75V3Z" fill="#0C751E"/>
</svg>
