<svg width="33" height="33" viewBox="0 0 33 33" fill="none" xmlns="http://www.w3.org/2000/svg">
<path fill-rule="evenodd" clip-rule="evenodd" d="M14.5 0.333344C12.241 0.333536 10.0148 0.873951 8.00709 1.9095C5.99941 2.94505 4.26848 4.44571 2.95872 6.28627C1.64896 8.12683 0.798345 10.2539 0.477842 12.4901C0.15734 14.7262 0.376244 17.0066 1.11629 19.141C1.85634 21.2753 3.09607 23.2018 4.73206 24.7596C6.36804 26.3173 8.35284 27.4613 10.5209 28.096C12.6889 28.7307 14.9772 28.8378 17.195 28.4082C19.4128 27.9786 21.4957 27.0249 23.27 25.6267L29.3567 31.7133C29.671 32.0169 30.092 32.1849 30.529 32.1811C30.966 32.1773 31.384 32.0021 31.693 31.693C32.002 31.384 32.1773 30.966 32.1811 30.529C32.1849 30.092 32.0169 29.671 31.7133 29.3567L25.6267 23.27C27.2733 21.181 28.2986 18.6707 28.5852 16.0262C28.8717 13.3818 28.408 10.71 27.247 8.31683C26.0861 5.92362 24.2748 3.9056 22.0205 2.49373C19.7662 1.08185 17.1599 0.333165 14.5 0.333344ZM3.66666 14.5C3.66666 11.6268 4.80803 8.87133 6.83967 6.83969C8.87132 4.80804 11.6268 3.66668 14.5 3.66668C17.3732 3.66668 20.1287 4.80804 22.1603 6.83969C24.192 8.87133 25.3333 11.6268 25.3333 14.5C25.3333 17.3732 24.192 20.1287 22.1603 22.1603C20.1287 24.192 17.3732 25.3333 14.5 25.3333C11.6268 25.3333 8.87132 24.192 6.83967 22.1603C4.80803 20.1287 3.66666 17.3732 3.66666 14.5Z" fill="#0C751E"/>
</svg>
